# Blender 5.1.2
# www.blender.org
o filler
v 0.000000 0.120000 0.000000
v 0.050000 0.120000 0.000000
v 0.050000 0.120000 0.560000
v 0.000000 0.120000 0.560000
v 0.000000 0.840000 0.000000
v 0.050000 0.840000 0.000000
v 0.050000 0.840000 0.560000
v 0.000000 0.840000 0.560000
s 0
f 1 2 3 4
f 5 6 7 8
f 1 2 6 5
f 2 3 7 6
f 3 4 8 7
f 4 1 5 8
o run0_base_1_base-drawer-door
v 0.052000 0.120000 0.000000
v 0.652000 0.120000 0.000000
v 0.652000 0.120000 0.560000
v 0.052000 0.120000 0.560000
v 0.052000 0.840000 0.000000
v 0.652000 0.840000 0.000000
v 0.652000 0.840000 0.560000
v 0.052000 0.840000 0.560000
s 0
f 9 10 11 12
f 13 14 15 16
f 9 10 14 13
f 10 11 15 14
f 11 12 16 15
f 12 9 13 16
o run0_base_2_base-sink
v 0.654000 0.120000 0.000000
v 1.454000 0.120000 0.000000
v 1.454000 0.120000 0.560000
v 0.654000 0.120000 0.560000
v 0.654000 0.840000 0.000000
v 1.454000 0.840000 0.000000
v 1.454000 0.840000 0.560000
v 0.654000 0.840000 0.560000
s 0
f 17 18 19 20
f 21 22 23 24
f 17 18 22 21
f 18 19 23 22
f 19 20 24 23
f 20 17 21 24
o run0_base_3_base-drawers
v 1.456000 0.120000 0.000000
v 2.056000 0.120000 0.000000
v 2.056000 0.120000 0.560000
v 1.456000 0.120000 0.560000
v 1.456000 0.840000 0.000000
v 2.056000 0.840000 0.000000
v 2.056000 0.840000 0.560000
v 1.456000 0.840000 0.560000
s 0
f 25 26 27 28
f 29 30 31 32
f 25 26 30 29
f 26 27 31 30
f 27 28 32 31
f 28 25 29 32
o run0_base_4_base-door
v 2.058000 0.120000 0.000000
v 2.658000 0.120000 0.000000
v 2.658000 0.120000 0.560000
v 2.058000 0.120000 0.560000
v 2.058000 0.840000 0.000000
v 2.658000 0.840000 0.000000
v 2.658000 0.840000 0.560000
v 2.058000 0.840000 0.560000
s 0
f 33 34 35 36
f 37 38 39 40
f 33 34 38 37
f 34 35 39 38
f 35 36 40 39
f 36 33 37 40
o filler.001
v 2.660000 0.120000 0.000000
v 2.710000 0.120000 0.000000
v 2.710000 0.120000 0.560000
v 2.660000 0.120000 0.560000
v 2.660000 0.840000 0.000000
v 2.710000 0.840000 0.000000
v 2.710000 0.840000 0.560000
v 2.660000 0.840000 0.560000
s 0
f 41 42 43 44
f 45 46 47 48
f 41 42 46 45
f 42 43 47 46
f 43 44 48 47
f 44 41 45 48
o filler.002
v 0.000000 1.400000 0.000000
v 0.050000 1.400000 0.000000
v 0.050000 1.400000 0.300000
v 0.000000 1.400000 0.300000
v 0.000000 2.000000 0.000000
v 0.050000 2.000000 0.000000
v 0.050000 2.000000 0.300000
v 0.000000 2.000000 0.300000
s 0
f 49 50 51 52
f 53 54 55 56
f 49 50 54 53
f 50 51 55 54
f 51 52 56 55
f 52 49 53 56
o run0_upper_1_wall-door
v 0.052000 1.400000 0.000000
v 0.652000 1.400000 0.000000
v 0.652000 1.400000 0.300000
v 0.052000 1.400000 0.300000
v 0.052000 2.000000 0.000000
v 0.652000 2.000000 0.000000
v 0.652000 2.000000 0.300000
v 0.052000 2.000000 0.300000
s 0
f 57 58 59 60
f 61 62 63 64
f 57 58 62 61
f 58 59 63 62
f 59 60 64 63
f 60 57 61 64
o run0_upper_2_wall-lift-up
v 0.654000 1.400000 0.000000
v 1.454000 1.400000 0.000000
v 1.454000 1.400000 0.300000
v 0.654000 1.400000 0.300000
v 0.654000 2.000000 0.000000
v 1.454000 2.000000 0.000000
v 1.454000 2.000000 0.300000
v 0.654000 2.000000 0.300000
s 0
f 65 66 67 68
f 69 70 71 72
f 65 66 70 69
f 66 67 71 70
f 67 68 72 71
f 68 65 69 72
o run0_upper_3_wall-door-double
v 1.456000 1.400000 0.000000
v 2.056000 1.400000 0.000000
v 2.056000 1.400000 0.300000
v 1.456000 1.400000 0.300000
v 1.456000 2.000000 0.000000
v 2.056000 2.000000 0.000000
v 2.056000 2.000000 0.300000
v 1.456000 2.000000 0.300000
s 0
f 73 74 75 76
f 77 78 79 80
f 73 74 78 77
f 74 75 79 78
f 75 76 80 79
f 76 73 77 80
o filler.003
v 2.058000 1.400000 0.000000
v 2.108000 1.400000 0.000000
v 2.108000 1.400000 0.300000
v 2.058000 1.400000 0.300000
v 2.058000 2.000000 0.000000
v 2.108000 2.000000 0.000000
v 2.108000 2.000000 0.300000
v 2.058000 2.000000 0.300000
s 0
f 81 82 83 84
f 85 86 87 88
f 81 82 86 85
f 82 83 87 86
f 83 84 88 87
f 84 81 85 88
o countertop
v -0.030000 0.840000 -0.020000
v 2.740000 0.840000 -0.020000
v 2.740000 0.840000 0.560000
v -0.030000 0.840000 0.560000
v -0.030000 0.870000 -0.020000
v 2.740000 0.870000 -0.020000
v 2.740000 0.870000 0.560000
v -0.030000 0.870000 0.560000
s 0
f 89 90 91 92
f 93 94 95 96
f 89 90 94 93
f 90 91 95 94
f 91 92 96 95
f 92 89 93 96
