# Blender 5.1.2
# www.blender.org
o filler
v 0.000000 0.120000 0.000000
v 0.050000 0.120000 0.000000
v 0.050000 0.120000 -0.560000
v 0.000000 0.120000 -0.560000
v 0.000000 0.840000 0.000000
v 0.050000 0.840000 0.000000
v 0.050000 0.840000 -0.560000
v 0.000000 0.840000 -0.560000
s 0
f 1 2 3 4
f 5 6 7 8
f 1 2 6 5
f 2 3 7 6
f 3 4 8 7
f 4 1 5 8
o run0_base_1_tall-oven
v 0.052000 0.120000 0.000000
v 0.652000 0.120000 0.000000
v 0.652000 0.120000 -0.560000
v 0.052000 0.120000 -0.560000
v 0.052000 0.840000 0.000000
v 0.652000 0.840000 0.000000
v 0.652000 0.840000 -0.560000
v 0.052000 0.840000 -0.560000
s 0
f 9 10 11 12
f 13 14 15 16
f 9 10 14 13
f 10 11 15 14
f 11 12 16 15
f 12 9 13 16
o run0_base_2_base-drawer-door
v 0.654000 0.120000 0.000000
v 1.254000 0.120000 0.000000
v 1.254000 0.120000 -0.560000
v 0.654000 0.120000 -0.560000
v 0.654000 0.840000 0.000000
v 1.254000 0.840000 0.000000
v 1.254000 0.840000 -0.560000
v 0.654000 0.840000 -0.560000
s 0
f 17 18 19 20
f 21 22 23 24
f 17 18 22 21
f 18 19 23 22
f 19 20 24 23
f 20 17 21 24
o run0_base_3_base-sink
v 1.256000 0.120000 0.000000
v 2.056000 0.120000 0.000000
v 2.056000 0.120000 -0.560000
v 1.256000 0.120000 -0.560000
v 1.256000 0.840000 0.000000
v 2.056000 0.840000 0.000000
v 2.056000 0.840000 -0.560000
v 1.256000 0.840000 -0.560000
s 0
f 25 26 27 28
f 29 30 31 32
f 25 26 30 29
f 26 27 31 30
f 27 28 32 31
f 28 25 29 32
o run0_base_4_base-drawers
v 2.058000 0.120000 0.000000
v 2.658000 0.120000 0.000000
v 2.658000 0.120000 -0.560000
v 2.058000 0.120000 -0.560000
v 2.058000 0.840000 0.000000
v 2.658000 0.840000 0.000000
v 2.658000 0.840000 -0.560000
v 2.058000 0.840000 -0.560000
s 0
f 33 34 35 36
f 37 38 39 40
f 33 34 38 37
f 34 35 39 38
f 35 36 40 39
f 36 33 37 40
o run0_base_5_corner-blind
v 2.660000 0.120000 0.000000
v 3.560000 0.120000 0.000000
v 3.560000 0.120000 -0.560000
v 2.660000 0.120000 -0.560000
v 2.660000 0.840000 0.000000
v 3.560000 0.840000 0.000000
v 3.560000 0.840000 -0.560000
v 2.660000 0.840000 -0.560000
s 0
f 41 42 43 44
f 45 46 47 48
f 41 42 46 45
f 42 43 47 46
f 43 44 48 47
f 44 41 45 48
o filler.001
v 0.000000 1.400000 0.000000
v 0.050000 1.400000 0.000000
v 0.050000 1.400000 -0.300000
v 0.000000 1.400000 -0.300000
v 0.000000 2.000000 0.000000
v 0.050000 2.000000 0.000000
v 0.050000 2.000000 -0.300000
v 0.000000 2.000000 -0.300000
s 0
f 49 50 51 52
f 53 54 55 56
f 49 50 54 53
f 50 51 55 54
f 51 52 56 55
f 52 49 53 56
o run0_upper_1_wall-lift-up
v 0.052000 1.400000 0.000000
v 0.652000 1.400000 0.000000
v 0.652000 1.400000 -0.300000
v 0.052000 1.400000 -0.300000
v 0.052000 2.000000 0.000000
v 0.652000 2.000000 0.000000
v 0.652000 2.000000 -0.300000
v 0.052000 2.000000 -0.300000
s 0
f 57 58 59 60
f 61 62 63 64
f 57 58 62 61
f 58 59 63 62
f 59 60 64 63
f 60 57 61 64
o run0_upper_2_wall-door
v 0.654000 1.400000 0.000000
v 1.254000 1.400000 0.000000
v 1.254000 1.400000 -0.300000
v 0.654000 1.400000 -0.300000
v 0.654000 2.000000 0.000000
v 1.254000 2.000000 0.000000
v 1.254000 2.000000 -0.300000
v 0.654000 2.000000 -0.300000
s 0
f 65 66 67 68
f 69 70 71 72
f 65 66 70 69
f 66 67 71 70
f 67 68 72 71
f 68 65 69 72
o run0_upper_3_wall-lift-up
v 1.256000 1.400000 0.000000
v 2.056000 1.400000 0.000000
v 2.056000 1.400000 -0.300000
v 1.256000 1.400000 -0.300000
v 1.256000 2.000000 0.000000
v 2.056000 2.000000 0.000000
v 2.056000 2.000000 -0.300000
v 1.256000 2.000000 -0.300000
s 0
f 73 74 75 76
f 77 78 79 80
f 73 74 78 77
f 74 75 79 78
f 75 76 80 79
f 76 73 77 80
o run0_upper_4_wall-door-double
v 2.058000 1.400000 0.000000
v 2.658000 1.400000 0.000000
v 2.658000 1.400000 -0.300000
v 2.058000 1.400000 -0.300000
v 2.058000 2.000000 0.000000
v 2.658000 2.000000 0.000000
v 2.658000 2.000000 -0.300000
v 2.058000 2.000000 -0.300000
s 0
f 81 82 83 84
f 85 86 87 88
f 81 82 86 85
f 82 83 87 86
f 83 84 88 87
f 84 81 85 88
o run0_upper_5_wall-glass
v 2.660000 1.400000 0.000000
v 3.260000 1.400000 0.000000
v 3.260000 1.400000 -0.300000
v 2.660000 1.400000 -0.300000
v 2.660000 2.000000 0.000000
v 3.260000 2.000000 0.000000
v 3.260000 2.000000 -0.300000
v 2.660000 2.000000 -0.300000
s 0
f 89 90 91 92
f 93 94 95 96
f 89 90 94 93
f 90 91 95 94
f 91 92 96 95
f 92 89 93 96
o countertop
v -0.030000 0.840000 0.000000
v 3.590000 0.840000 0.000000
v 3.590000 0.840000 -0.580000
v -0.030000 0.840000 -0.580000
v -0.030000 0.870000 0.000000
v 3.590000 0.870000 0.000000
v 3.590000 0.870000 -0.580000
v -0.030000 0.870000 -0.580000
s 0
f 97 98 99 100
f 101 102 103 104
f 97 98 102 101
f 98 99 103 102
f 99 100 104 103
f 100 97 101 104
o run1_base_0_base-door
v 3.560000 0.120000 0.000000
v 3.560000 0.120000 -0.600000
v 3.000000 0.120000 -0.600000
v 3.000000 0.120000 0.000000
v 3.560000 0.840000 0.000000
v 3.560000 0.840000 -0.600000
v 3.000000 0.840000 -0.600000
v 3.000000 0.840000 0.000000
s 0
f 105 106 107 108
f 109 110 111 112
f 105 106 110 109
f 106 107 111 110
f 107 108 112 111
f 108 105 109 112
o run1_base_1_base-drawers
v 3.560000 0.120000 -0.602000
v 3.560000 0.120000 -1.002000
v 3.000000 0.120000 -1.002000
v 3.000000 0.120000 -0.602000
v 3.560000 0.840000 -0.602000
v 3.560000 0.840000 -1.002000
v 3.000000 0.840000 -1.002000
v 3.000000 0.840000 -0.602000
s 0
f 113 114 115 116
f 117 118 119 120
f 113 114 118 117
f 114 115 119 118
f 115 116 120 119
f 116 113 117 120
o run1_base_2_base-door-double
v 3.560000 0.120000 -1.004000
v 3.560000 0.120000 -1.804000
v 3.000000 0.120000 -1.804000
v 3.000000 0.120000 -1.004000
v 3.560000 0.840000 -1.004000
v 3.560000 0.840000 -1.804000
v 3.000000 0.840000 -1.804000
v 3.000000 0.840000 -1.004000
s 0
f 121 122 123 124
f 125 126 127 128
f 121 122 126 125
f 122 123 127 126
f 123 124 128 127
f 124 121 125 128
o filler.002
v 3.560000 0.120000 -1.806000
v 3.560000 0.120000 -1.856000
v 3.000000 0.120000 -1.856000
v 3.000000 0.120000 -1.806000
v 3.560000 0.840000 -1.806000
v 3.560000 0.840000 -1.856000
v 3.000000 0.840000 -1.856000
v 3.000000 0.840000 -1.806000
s 0
f 129 130 131 132
f 133 134 135 136
f 129 130 134 133
f 130 131 135 134
f 131 132 136 135
f 132 129 133 136
o run1_upper_0_wall-door
v 3.560000 1.400000 0.000000
v 3.560000 1.400000 -0.600000
v 3.260000 1.400000 -0.600000
v 3.260000 1.400000 0.000000
v 3.560000 2.000000 0.000000
v 3.560000 2.000000 -0.600000
v 3.260000 2.000000 -0.600000
v 3.260000 2.000000 0.000000
s 0
f 137 138 139 140
f 141 142 143 144
f 137 138 142 141
f 138 139 143 142
f 139 140 144 143
f 140 137 141 144
o run1_upper_1_wall-door
v 3.560000 1.400000 -0.602000
v 3.560000 1.400000 -1.002000
v 3.260000 1.400000 -1.002000
v 3.260000 1.400000 -0.602000
v 3.560000 2.000000 -0.602000
v 3.560000 2.000000 -1.002000
v 3.260000 2.000000 -1.002000
v 3.260000 2.000000 -0.602000
s 0
f 145 146 147 148
f 149 150 151 152
f 145 146 150 149
f 146 147 151 150
f 147 148 152 151
f 148 145 149 152
o run1_upper_2_wall-door
v 3.560000 1.400000 -1.004000
v 3.560000 1.400000 -1.804000
v 3.260000 1.400000 -1.804000
v 3.260000 1.400000 -1.004000
v 3.560000 2.000000 -1.004000
v 3.560000 2.000000 -1.804000
v 3.260000 2.000000 -1.804000
v 3.260000 2.000000 -1.004000
s 0
f 153 154 155 156
f 157 158 159 160
f 153 154 158 157
f 154 155 159 158
f 155 156 160 159
f 156 153 157 160
o filler.003
v 3.560000 1.400000 -1.806000
v 3.560000 1.400000 -1.856000
v 3.260000 1.400000 -1.856000
v 3.260000 1.400000 -1.806000
v 3.560000 2.000000 -1.806000
v 3.560000 2.000000 -1.856000
v 3.260000 2.000000 -1.856000
v 3.260000 2.000000 -1.806000
s 0
f 161 162 163 164
f 165 166 167 168
f 161 162 166 165
f 162 163 167 166
f 163 164 168 167
f 164 161 165 168
o countertop.001
v 3.560000 0.840000 0.030000
v 3.560000 0.840000 -1.886000
v 2.980000 0.840000 -1.886000
v 2.980000 0.840000 0.030000
v 3.560000 0.870000 0.030000
v 3.560000 0.870000 -1.886000
v 2.980000 0.870000 -1.886000
v 2.980000 0.870000 0.030000
s 0
f 169 170 171 172
f 173 174 175 176
f 169 170 174 173
f 170 171 175 174
f 171 172 176 175
f 172 169 173 176
